{
  "accessors": [
    {
      "bufferView": 2,
      "componentType": 5126,
      "count": 29384,
      "max": [
        66.20389556884766,
        63.96115493774414,
        1.092568737703914e-07
      ],
      "min": [
        -59.209144592285156,
        -50.507869720458984,
        -153.53656005859375
      ],
      "type": "VEC3"
    },
    {
      "bufferView": 2,
      "byteOffset": 352608,
      "componentType": 5126,
      "count": 29384,
      "max": [
        0.9997140169143677,
        0.9999523162841797,
        0.979491114616394
      ],
      "min": [
        -0.9994046092033386,
        -0.9999910593032837,
        -0.9973905086517334
      ],
      "type": "VEC3"
    },
    {
      "bufferView": 3,
      "componentType": 5126,
      "count": 29384,
      "max": [
        0.9999231100082397,
        0.9999911785125732,
        0.9816592931747437,
        -1.0
      ],
      "min": [
        -0.9999879598617554,
        -0.9999598264694214,
        -0.9860150218009949,
        -1.0
      ],
      "type": "VEC4"
    },
    {
      "bufferView": 1,
      "componentType": 5126,
      "count": 29384,
      "max": [
        1.0,
        1.0
      ],
      "min": [
        0.0,
        0.0
      ],
      "type": "VEC2"
    },
    {
      "bufferView": 0,
      "componentType": 5125,
      "count": 107640,
      "type": "SCALAR"
    },
    {
      "bufferView": 2,
      "byteOffset": 705216,
      "componentType": 5126,
      "count": 54416,
      "max": [
        72.36952209472656,
        75.68988800048828,
        -42.73223114013672
      ],
      "min": [
        -70.16671752929688,
        -59.37155532836914,
        -156.9428253173828
      ],
      "type": "VEC3"
    },
    {
      "bufferView": 2,
      "byteOffset": 1358208,
      "componentType": 5126,
      "count": 54416,
      "max": [
        0.9994272589683533,
        0.9997632503509521,
        0.6110736131668091
      ],
      "min": [
        -0.9990646839141846,
        -0.9959479570388794,
        -0.9999820590019226
      ],
      "type": "VEC3"
    },
    {
      "bufferView": 3,
      "byteOffset": 470144,
      "componentType": 5126,
      "count": 54416,
      "max": [
        0.9997614622116089,
        0.997992992401123,
        0.9984499216079712,
        1.0
      ],
      "min": [
        -0.9995923042297363,
        -0.9993598461151123,
        -0.9933490753173828,
        1.0
      ],
      "type": "VEC4"
    },
    {
      "bufferView": 1,
      "byteOffset": 235072,
      "componentType": 5126,
      "count": 54416,
      "max": [
        1.0,
        1.0
      ],
      "min": [
        0.0,
        0.0
      ],
      "type": "VEC2"
    },
    {
      "bufferView": 0,
      "byteOffset": 430560,
      "componentType": 5125,
      "count": 54432,
      "type": "SCALAR"
    },
    {
      "bufferView": 2,
      "byteOffset": 2011200,
      "componentType": 5126,
      "count": 26321,
      "max": [
        47.26616668701172,
        40.087493896484375,
        1.2424013107192877e-07
      ],
      "min": [
        -39.47119903564453,
        -55.88587188720703,
        -161.14614868164063
      ],
      "type": "VEC3"
    },
    {
      "bufferView": 2,
      "byteOffset": 2327052,
      "componentType": 5126,
      "count": 26321,
      "max": [
        0.9999809861183167,
        0.9999130368232727,
        0.9473787546157837
      ],
      "min": [
        -0.9999820590019226,
        -0.999801754951477,
        -0.9985278248786926
      ],
      "type": "VEC3"
    },
    {
      "bufferView": 3,
      "byteOffset": 1340800,
      "componentType": 5126,
      "count": 26321,
      "max": [
        0.999680757522583,
        0.9999983310699463,
        0.9872534275054932,
        -1.0
      ],
      "min": [
        -0.9999836683273315,
        -0.9999983310699463,
        -0.9792906045913696,
        -1.0
      ],
      "type": "VEC4"
    },
    {
      "bufferView": 1,
      "byteOffset": 670400,
      "componentType": 5126,
      "count": 26321,
      "max": [
        1.0,
        1.0
      ],
      "min": [
        0.0,
        0.0
      ],
      "type": "VEC2"
    },
    {
      "bufferView": 0,
      "byteOffset": 648288,
      "componentType": 5125,
      "count": 96201,
      "type": "SCALAR"
    },
    {
      "bufferView": 2,
      "byteOffset": 2642904,
      "componentType": 5126,
      "count": 51826,
      "max": [
        60.29722213745117,
        54.54784393310547,
        -48.413551330566406
      ],
      "min": [
        -47.229278564453125,
        -70.30017852783203,
        -165.90687561035156
      ],
      "type": "VEC3"
    },
    {
      "bufferView": 2,
      "byteOffset": 3264816,
      "componentType": 5126,
      "count": 51826,
      "max": [
        0.9998425841331482,
        0.9997575879096985,
        0.3423735201358795
      ],
      "min": [
        -0.9942511320114136,
        -0.9918193817138672,
        -0.99994295835495
      ],
      "type": "VEC3"
    },
    {
      "bufferView": 3,
      "byteOffset": 1761936,
      "componentType": 5126,
      "count": 51826,
      "max": [
        0.9996407628059387,
        0.9988226890563965,
        0.9554095268249512,
        1.0
      ],
      "min": [
        -0.9989182949066162,
        -0.9996848702430725,
        -0.9987546801567078,
        1.0
      ],
      "type": "VEC4"
    },
    {
      "bufferView": 1,
      "byteOffset": 880968,
      "componentType": 5126,
      "count": 51826,
      "max": [
        1.0,
        1.0
      ],
      "min": [
        0.0,
        0.0
      ],
      "type": "VEC2"
    },
    {
      "bufferView": 0,
      "byteOffset": 1033092,
      "componentType": 5125,
      "count": 51840,
      "type": "SCALAR"
    },
    {
      "bufferView": 2,
      "byteOffset": 3886728,
      "componentType": 5126,
      "count": 29994,
      "max": [
        66.70746612548828,
        78.73860168457031,
        9.239424514362327e-08
      ],
      "min": [
        -91.4612808227539,
        -76.95015716552734,
        -153.531005859375
      ],
      "type": "VEC3"
    },
    {
      "bufferView": 2,
      "byteOffset": 4246656,
      "componentType": 5126,
      "count": 29994,
      "max": [
        0.9999483227729797,
        0.9994783997535706,
        0.9940575361251831
      ],
      "min": [
        -0.9999973177909851,
        -0.9998212456703186,
        -0.9998105764389038
      ],
      "type": "VEC3"
    },
    {
      "bufferView": 3,
      "byteOffset": 2591152,
      "componentType": 5126,
      "count": 29994,
      "max": [
        0.9999286532402039,
        0.9999452233314514,
        0.9984309673309326,
        -1.0
      ],
      "min": [
        -0.9999984502792358,
        -0.9999592304229736,
        -0.9978340864181519,
        -1.0
      ],
      "type": "VEC4"
    },
    {
      "bufferView": 1,
      "byteOffset": 1295576,
      "componentType": 5126,
      "count": 29994,
      "max": [
        1.0,
        1.0
      ],
      "min": [
        0.0,
        0.0
      ],
      "type": "VEC2"
    },
    {
      "bufferView": 0,
      "byteOffset": 1240452,
      "componentType": 5125,
      "count": 110556,
      "type": "SCALAR"
    },
    {
      "bufferView": 2,
      "byteOffset": 4606584,
      "componentType": 5126,
      "count": 65534,
      "max": [
        78.59706115722656,
        71.89481353759766,
        -32.99774169921875
      ],
      "min": [
        -96.89303588867188,
        -82.03671264648438,
        -156.42950439453125
      ],
      "type": "VEC3"
    },
    {
      "bufferView": 2,
      "byteOffset": 5392992,
      "componentType": 5126,
      "count": 65534,
      "max": [
        0.9989023208618164,
        0.9981472492218018,
        0.5837023258209229
      ],
      "min": [
        -0.9995980262756348,
        -0.9984197020530701,
        -0.9999319314956665
      ],
      "type": "VEC3"
    },
    {
      "bufferView": 3,
      "byteOffset": 3071056,
      "componentType": 5126,
      "count": 65534,
      "max": [
        0.998961329460144,
        0.9994635581970215,
        0.9999382495880127,
        1.0
      ],
      "min": [
        -0.9998892545700073,
        -0.9997800588607788,
        -0.9992702603340149,
        1.0
      ],
      "type": "VEC4"
    },
    {
      "bufferView": 1,
      "byteOffset": 1535528,
      "componentType": 5126,
      "count": 65534,
      "max": [
        1.0,
        1.0
      ],
      "min": [
        0.0,
        0.0
      ],
      "type": "VEC2"
    },
    {
      "bufferView": 0,
      "byteOffset": 1682676,
      "componentType": 5125,
      "count": 65568,
      "type": "SCALAR"
    },
    {
      "bufferView": 2,
      "byteOffset": 6179400,
      "componentType": 5126,
      "count": 9254,
      "max": [
        29.59699249267578,
        74.9707260131836,
        -30.631216049194336
      ],
      "min": [
        -46.68069076538086,
        2.0440194606781006,
        -116.24188995361328
      ],
      "type": "VEC3"
    },
    {
      "bufferView": 2,
      "byteOffset": 6290448,
      "componentType": 5126,
      "count": 9254,
      "max": [
        0.9659519791603088,
        0.9996722340583801,
        0.43850651383399963
      ],
      "min": [
        -0.9984619617462158,
        -0.7794879078865051,
        -0.9998360872268677
      ],
      "type": "VEC3"
    },
    {
      "bufferView": 3,
      "byteOffset": 4119600,
      "componentType": 5126,
      "count": 9254,
      "max": [
        0.9992860555648804,
        0.9961323142051697,
        0.9879732728004456,
        1.0
      ],
      "min": [
        -0.9992513060569763,
        -0.9949077367782593,
        -0.9950659871101379,
        1.0
      ],
      "type": "VEC4"
    },
    {
      "bufferView": 1,
      "byteOffset": 2059800,
      "componentType": 5126,
      "count": 9254,
      "max": [
        1.0,
        1.0
      ],
      "min": [
        0.0,
        0.0
      ],
      "type": "VEC2"
    },
    {
      "bufferView": 0,
      "byteOffset": 1944948,
      "componentType": 5125,
      "count": 9264,
      "type": "SCALAR"
    }
  ],
  "asset": {
    "extras": {
      "author": "Jagobo (https://sketchfab.com/Jagobo)",
      "license": "CC-BY-4.0 (http://creativecommons.org/licenses/by/4.0/)",
      "source": "https://sketchfab.com/3d-models/maple-trees-9f51e08e56cd4e44b35fd02a3ad8d3a6",
      "title": "Maple Trees"
    },
    "generator": "Sketchfab-15.31.0",
    "version": "2.0"
  },
  "bufferViews": [
    {
      "buffer": 0,
      "byteLength": 1982004,
      "name": "floatBufferViews",
      "target": 34963
    },
    {
      "buffer": 0,
      "byteLength": 2133832,
      "byteOffset": 1982004,
      "byteStride": 8,
      "name": "floatBufferViews",
      "target": 34962
    },
    {
      "buffer": 0,
      "byteLength": 6401496,
      "byteOffset": 4115836,
      "byteStride": 12,
      "name": "floatBufferViews",
      "target": 34962
    },
    {
      "buffer": 0,
      "byteLength": 4267664,
      "byteOffset": 10517332,
      "byteStride": 16,
      "name": "floatBufferViews",
      "target": 34962
    }
  ],
  "buffers": [
    {
      "byteLength": 14784996,
      "uri": "scene.bin"
    }
  ],
  "extensionsUsed": [
    "KHR_materials_specular"
  ],
  "images": [
    {
      "uri": "textures/bark_baseColor.png"
    },
    {
      "uri": "textures/bark_metallicRoughness.png"
    },
    {
      "uri": "textures/bark_normal.png"
    },
    {
      "uri": "textures/foliage_baseColor.png"
    },
    {
      "uri": "textures/foliage_metallicRoughness.png"
    },
    {
      "uri": "textures/foliage_normal.png"
    }
  ],
  "materials": [
    {
      "doubleSided": true,
      "extensions": {
        "KHR_materials_specular": {
          "specularColorFactor": [
            1.0,
            1.0,
            1.0
          ],
          "specularFactor": 0.0
        }
      },
      "name": "bark",
      "normalTexture": {
        "index": 2
      },
      "pbrMetallicRoughness": {
        "baseColorTexture": {
          "index": 0
        },
        "metallicFactor": 0.0,
        "metallicRoughnessTexture": {
          "index": 1
        }
      }
    },
    {
      "alphaMode": "BLEND",
      "doubleSided": true,
      "extensions": {
        "KHR_materials_specular": {
          "specularColorFactor": [
            1.0,
            1.0,
            1.0
          ],
          "specularFactor": 0.0
        }
      },
      "name": "foliage",
      "normalTexture": {
        "index": 5
      },
      "pbrMetallicRoughness": {
        "baseColorTexture": {
          "index": 3
        },
        "metallicFactor": 0.0,
        "metallicRoughnessTexture": {
          "index": 4
        }
      }
    }
  ],
  "meshes": [
    {
      "name": "Object_0",
      "primitives": [
        {
          "attributes": {
            "NORMAL": 1,
            "POSITION": 0,
            "TANGENT": 2,
            "TEXCOORD_0": 3
          },
          "indices": 4,
          "material": 0,
          "mode": 4
        }
      ]
    },
    {
      "name": "Object_1",
      "primitives": [
        {
          "attributes": {
            "NORMAL": 6,
            "POSITION": 5,
            "TANGENT": 7,
            "TEXCOORD_0": 8
          },
          "indices": 9,
          "material": 1,
          "mode": 4
        }
      ]
    },
    {
      "name": "Object_2",
      "primitives": [
        {
          "attributes": {
            "NORMAL": 11,
            "POSITION": 10,
            "TANGENT": 12,
            "TEXCOORD_0": 13
          },
          "indices": 14,
          "material": 0,
          "mode": 4
        }
      ]
    },
    {
      "name": "Object_3",
      "primitives": [
        {
          "attributes": {
            "NORMAL": 16,
            "POSITION": 15,
            "TANGENT": 17,
            "TEXCOORD_0": 18
          },
          "indices": 19,
          "material": 1,
          "mode": 4
        }
      ]
    },
    {
      "name": "Object_4",
      "primitives": [
        {
          "attributes": {
            "NORMAL": 21,
            "POSITION": 20,
            "TANGENT": 22,
            "TEXCOORD_0": 23
          },
          "indices": 24,
          "material": 0,
          "mode": 4
        }
      ]
    },
    {
      "name": "Object_5",
      "primitives": [
        {
          "attributes": {
            "NORMAL": 26,
            "POSITION": 25,
            "TANGENT": 27,
            "TEXCOORD_0": 28
          },
          "indices": 29,
          "material": 1,
          "mode": 4
        }
      ]
    },
    {
      "name": "Object_6",
      "primitives": [
        {
          "attributes": {
            "NORMAL": 31,
            "POSITION": 30,
            "TANGENT": 32,
            "TEXCOORD_0": 33
          },
          "indices": 34,
          "material": 1,
          "mode": 4
        }
      ]
    }
  ],
  "nodes": [
    {
      "children": [
        1
      ],
      "matrix": [
        1.0,
        0.0,
        0.0,
        0.0,
        0.0,
        2.220446049250313e-16,
        -1.0,
        0.0,
        0.0,
        1.0,
        2.220446049250313e-16,
        0.0,
        0.0,
        0.0,
        0.0,
        1.0
      ],
      "name": "Sketchfab_model"
    },
    {
      "children": [
        2
      ],
      "name": "root"
    },
    {
      "children": [
        3,
        5,
        7,
        9,
        11,
        13
      ],
      "matrix": [
        1.0,
        0.0,
        0.0,
        0.0,
        0.0,
        2.220446049250313e-16,
        1.0,
        0.0,
        0.0,
        -1.0,
        2.220446049250313e-16,
        0.0,
        0.0,
        0.0,
        0.0,
        1.0
      ],
      "name": "GLTF_SceneRootNode"
    },
    {
      "children": [
        4
      ],
      "matrix": [
        1.0,
        0.0,
        0.0,
        0.0,
        0.0,
        -1.685873969314855e-07,
        0.9999999999999858,
        0.0,
        0.0,
        -0.9999999999999858,
        -1.685873969314855e-07,
        0.0,
        0.0,
        0.0,
        0.0,
        1.0
      ],
      "name": "structure_2"
    },
    {
      "mesh": 0,
      "name": "Object_4"
    },
    {
      "children": [
        6
      ],
      "matrix": [
        1.0,
        0.0,
        0.0,
        0.0,
        0.0,
        -1.685873969314855e-07,
        0.9999999999999858,
        0.0,
        0.0,
        -0.9999999999999858,
        -1.685873969314855e-07,
        0.0,
        0.0,
        0.0,
        0.0,
        1.0
      ],
      "name": "foliage_3"
    },
    {
      "mesh": 1,
      "name": "Object_6"
    },
    {
      "children": [
        8
      ],
      "matrix": [
        0.2561912350725052,
        4.8801635621487094e-08,
        0.9666261175201207,
        0.0,
        -0.96662611752011,
        -1.4391330638297006e-07,
        0.2561912350725098,
        0.0,
        1.51612911725163e-07,
        -0.9999999999999887,
        1.0303607744788223e-08,
        0.0,
        136.6515350341797,
        0.0,
        0.0,
        1.0
      ],
      "name": "structure.001_4"
    },
    {
      "mesh": 2,
      "name": "Object_8"
    },
    {
      "children": [
        10
      ],
      "matrix": [
        0.2561912350725052,
        4.8801635621487094e-08,
        0.9666261175201207,
        0.0,
        -0.96662611752011,
        -1.4391330638297006e-07,
        0.2561912350725098,
        0.0,
        1.51612911725163e-07,
        -0.9999999999999887,
        1.0303607744788223e-08,
        0.0,
        136.6515350341797,
        0.0,
        0.0,
        1.0
      ],
      "name": "foliage.001_5"
    },
    {
      "mesh": 3,
      "name": "Object_10"
    },
    {
      "children": [
        12
      ],
      "matrix": [
        -0.7108185515382974,
        -6.928168316822081e-09,
        0.7033754237880341,
        0.0,
        -0.7033754237880305,
        -9.398821587680573e-08,
        -0.7108185515382948,
        0.0,
        7.103367177796471e-08,
        -0.9999999999999956,
        6.193546431276786e-08,
        0.0,
        -171.6321258544922,
        0.0,
        0.0,
        1.0
      ],
      "name": "structure.002_6"
    },
    {
      "mesh": 4,
      "name": "Object_12"
    },
    {
      "children": [
        14,
        15
      ],
      "matrix": [
        -0.7108185515382974,
        -6.928168316822081e-09,
        0.7033754237880341,
        0.0,
        -0.7033754237880305,
        -9.398821587680573e-08,
        -0.7108185515382948,
        0.0,
        7.103367177796471e-08,
        -0.9999999999999956,
        6.193546431276786e-08,
        0.0,
        -171.6321258544922,
        0.0,
        0.0,
        1.0
      ],
      "name": "foliage.002_7"
    },
    {
      "mesh": 5,
      "name": "Object_14"
    },
    {
      "mesh": 6,
      "name": "Object_15"
    }
  ],
  "samplers": [
    {
      "magFilter": 9729,
      "minFilter": 9987,
      "wrapS": 10497,
      "wrapT": 10497
    }
  ],
  "scene": 0,
  "scenes": [
    {
      "name": "Sketchfab_Scene",
      "nodes": [
        0
      ]
    }
  ],
  "textures": [
    {
      "sampler": 0,
      "source": 0
    },
    {
      "sampler": 0,
      "source": 1
    },
    {
      "sampler": 0,
      "source": 2
    },
    {
      "sampler": 0,
      "source": 3
    },
    {
      "sampler": 0,
      "source": 4
    },
    {
      "sampler": 0,
      "source": 5
    }
  ]
}
